HIERARCHY
ROOT hip
{
	OFFSET 0.000000 0.000000 0.000000 
	CHANNELS 6 Xposition Yposition Zposition Xrotation Zrotation Yrotation
	JOINT abdomen
	{
		OFFSET 0.000000 3.402643 0.000000 
		CHANNELS 3 Xrotation Zrotation Yrotation
		JOINT chest
		{
			OFFSET 0.000000 8.438565 -0.680529 
			CHANNELS 3 Xrotation Zrotation Yrotation
			JOINT neck
			{
				OFFSET 0.000000 10.207942 -0.272212 
				CHANNELS 3 Xrotation Zrotation Yrotation
				JOINT head
				{
					OFFSET 0.000000 3.130431 0.000000 
					CHANNELS 3 Xrotation Zrotation Yrotation
					End Site
					{
						OFFSET 0.000000 3.130435 0.000000 
					}
				}
			}
			JOINT lCollar
			{
				OFFSET 3.470700 6.669187 -0.816635 
				CHANNELS 3 Yrotation Zrotation Xrotation
				JOINT lShldr
				{
					OFFSET 3.198488 0.000000 0.000000 
					CHANNELS 3 Zrotation Yrotation Xrotation
					JOINT lForeArm
					{
						OFFSET 10.139888 0.000000 0.000000 
						CHANNELS 3 Yrotation Zrotation Xrotation
						JOINT lHand
						{
							OFFSET 8.370511 0.000000 0.000000 
							CHANNELS 3 Zrotation Yrotation Xrotation
							End Site
							{
								OFFSET 4.083176 0.000000 0.000000 
							}
						}
					}
				}
			}
			JOINT rCollar
			{
				OFFSET -3.470700 6.669187 -0.816635 
				CHANNELS 3 Yrotation Zrotation Xrotation
				JOINT rShldr
				{
					OFFSET -3.198488 0.000000 0.000000 
					CHANNELS 3 Zrotation Yrotation Xrotation
					JOINT rForeArm
					{
						OFFSET -10.139888 0.000000 0.000000 
						CHANNELS 3 Yrotation Zrotation Xrotation
						JOINT rHand
						{
							OFFSET -8.370511 0.000000 0.000000 
							CHANNELS 3 Zrotation Yrotation Xrotation
							End Site
							{
								OFFSET -4.083176 0.000000 0.000000 
							}
						}
					}
				}
			}
		}
	}
	JOINT lThigh
	{
		OFFSET 5.308129 -1.633274 1.361059 
		CHANNELS 3 Xrotation Zrotation Yrotation
		JOINT lShin
		{
			OFFSET -2.041588 -20.007561 0.000000 
			CHANNELS 3 Xrotation Zrotation Yrotation
			JOINT lFoot
			{
				OFFSET 0.000000 -19.190928 -1.224953 
				CHANNELS 3 Xrotation Yrotation Zrotation
				End Site
				{
					OFFSET 0.000000 -2.449906 4.627600 
				}
			}
		}
	}
	JOINT rThigh
	{
		OFFSET -5.308129 -1.633274 1.361059 
		CHANNELS 3 Xrotation Zrotation Yrotation
		JOINT rShin
		{
			OFFSET 2.041588 -20.007561 0.000000 
			CHANNELS 3 Xrotation Zrotation Yrotation
			JOINT rFoot
			{
				OFFSET 0.000000 -19.190928 -1.224953 
				CHANNELS 3 Xrotation Yrotation Zrotation
				End Site
				{
					OFFSET 0.000000 -2.449906 4.627600 
				}
			}
		}
	}
}
MOTION
Frames: 14
Frame Time: 0.016667
9.591992 44.545189 125.815498 8.405272 6.466329 -26.164946 60.123459 0.290504 -0.631648 10.996921 0.400291 -1.259734 -9.391433 -1.684786 0.353596 -20.407200 -13.618546 33.723400 -21.453920 -0.704722 -0.033972 -16.312672 -18.809839 -13.222212 -84.018509 5.000000 -3.329711 -12.751648 -16.179911 36.256294 17.352135 -0.010132 -0.006614 43.090763 47.025234 9.961505 104.707008 -5.000000 4.175034 12.694826 -14.468943 18.911726 -26.874098 2.968450 25.415129 79.878815 -1.053735 -7.778570 -49.028774 1.451828 1.579941 -53.564915 -0.585774 -1.866173 33.355213 9.973955 9.197419 -4.778907 -18.530603 -1.707686 
9.327449 44.599571 126.608833 8.613662 5.685640 -26.133379 60.364605 0.543880 -0.077447 10.903468 0.644368 -1.308622 -9.254605 -1.715214 0.348324 -20.073864 -13.571432 33.868649 -21.463713 -0.743732 -0.035981 -16.425760 -18.898205 -13.314187 -83.892487 5.000000 -3.396758 -12.944754 -15.907494 36.408726 17.469309 -0.166193 0.001458 44.378517 47.094700 11.197007 104.296875 -5.000000 4.140559 12.443466 -14.483292 19.518593 -26.877865 4.545376 25.149670 81.566452 -0.799605 -7.978198 -46.362480 1.046290 -0.026299 -53.403255 -0.283336 -1.287455 35.222996 9.997788 10.334808 -5.215705 -19.231201 -2.797090 
9.055861 44.633625 127.367104 8.687742 5.198517 -26.022877 60.573280 0.633391 0.104799 10.803488 0.741997 -1.347674 -9.224082 -1.552531 0.313853 -19.846638 -13.377085 34.000568 -21.424557 -0.587691 -0.027943 -16.425280 -19.021507 -13.376735 -83.674934 5.000000 -3.498382 -12.990548 -15.810725 36.539928 17.508371 -0.205209 0.003477 45.775967 47.194920 12.488660 103.980934 -5.000000 4.147860 12.354183 -14.498453 20.091511 -27.493931 6.157059 24.552898 83.609833 -0.527315 -8.311644 -41.382561 0.402266 -1.997311 -53.371792 -0.058927 -0.885581 37.399361 9.997376 11.335427 -6.221104 -19.744389 -3.918661 
8.773551 44.648296 128.089645 8.626247 5.004113 -25.837553 60.724918 0.538915 -0.107142 10.696731 0.712707 -1.347677 -9.300014 -1.198197 0.240520 -19.723478 -13.025188 34.136753 -21.356073 -0.265854 -0.011362 -16.301035 -19.177002 -13.413589 -83.343643 5.000000 -3.649217 -12.892514 -15.876892 36.650604 17.469311 -0.117429 -0.001062 47.325382 47.308784 13.868592 103.752457 -5.000000 4.198140 12.433821 -14.524653 20.637146 -28.755585 7.721218 23.630365 86.035889 -0.166019 -8.771932 -34.187580 -0.760195 -4.314523 -53.492752 0.068392 -0.626690 39.817951 9.983212 12.193743 -7.845651 -20.112005 -5.132447 
8.504053 44.641857 128.798584 8.545578 4.809832 -25.633125 60.897427 0.475442 -0.292980 10.599856 0.683421 -1.328150 -9.376609 -0.872827 0.171555 -19.601841 -12.724883 34.212734 -21.307207 0.049778 -0.004382 -16.181965 -19.352240 -13.443557 -83.011726 5.000000 -3.801483 -12.774502 -15.935037 36.700508 17.440025 -0.055982 0.005228 48.833866 47.342346 15.165392 103.582878 -5.000000 4.250152 12.502641 -14.546032 21.075323 -30.154083 9.246154 22.579491 88.430367 0.185412 -9.274240 -26.593666 -2.121240 -6.410535 -53.578037 0.205252 -0.454928 42.237659 9.983595 12.964646 -9.435574 -20.342402 -6.276016 
8.255330 44.611671 129.505875 8.360997 4.600147 -25.350433 61.083317 0.470383 -0.314735 10.483347 0.673668 -1.259794 -9.483434 -0.700485 0.135608 -19.477919 -12.703734 34.016529 -21.414623 0.264353 0.006678 -16.093037 -19.651054 -13.461947 -82.700005 5.000000 -3.963372 -12.552876 -15.963563 36.444538 17.391203 -0.124250 0.008757 50.136585 47.037918 16.049358 103.665108 -5.000000 4.322481 12.504710 -14.590381 20.941652 -32.128658 10.654354 20.972374 90.578659 0.633600 -10.255403 -16.715229 -3.590558 -8.419819 -53.543808 0.331953 -0.839051 44.633034 9.996741 13.228633 -10.983201 -20.111805 -7.118037 
8.024444 44.566158 130.205856 8.161122 4.398538 -25.059118 61.289158 0.496150 -0.310134 10.376703 0.663917 -1.181673 -9.600306 -0.555649 0.113697 -19.359236 -12.731346 33.768040 -21.551378 0.469179 0.017238 -16.005035 -19.972252 -13.478597 -82.377708 5.000000 -4.129913 -12.302762 -15.987342 36.125156 17.352158 -0.212024 0.013294 51.403412 46.656055 16.867758 103.798195 -5.000000 4.400003 12.505283 -14.630791 20.697943 -34.234550 11.999146 19.205097 92.675385 1.111588 -11.268953 -6.462394 -5.594448 -10.140646 -53.463055 0.478700 -1.332141 47.000565 9.982854 13.368337 -12.565967 -19.847950 -7.975811 
7.820881 44.525497 130.896164 7.984081 4.104243 -24.852898 61.488800 0.591237 -0.102664 10.299452 0.654167 -1.084021 -9.697924 -0.536338 0.110775 -19.273804 -12.812830 33.546997 -21.649067 0.576474 0.022771 -15.943586 -20.356684 -13.492717 -82.130730 5.000000 -4.251469 -12.121305 -16.105251 35.874630 17.322893 -0.348561 0.020351 52.510094 46.250961 17.511168 103.834152 -5.000000 4.452438 12.595917 -14.611581 20.317295 -36.348038 13.223323 17.578726 94.531334 1.591933 -12.176825 -0.695918 -6.593330 -11.290033 -53.315376 0.703097 -1.280884 49.078159 9.989127 13.875314 -14.001595 -20.377640 -8.785164 
7.641720 44.487495 131.578156 7.850397 3.717835 -24.723402 61.703480 0.752611 0.283473 10.261827 0.624892 -0.957075 -9.786078 -0.661862 0.129765 -19.232088 -12.964948 33.357922 -21.707664 0.586236 0.023277 -15.896331 -20.795826 -13.522552 -81.948792 5.000000 -4.338058 -11.996098 -16.314186 35.693478 17.303438 -0.543613 0.030433 53.470940 45.807896 17.978947 103.773956 -5.000000 4.477790 12.770846 -14.535391 19.818378 -38.433304 14.362229 16.150440 96.178932 2.079143 -12.887370 0.617861 -6.371323 -12.214025 -53.050510 0.995939 -0.685228 50.810680 9.988781 14.767203 -15.370810 -21.654953 -9.634851 
7.477651 44.447346 132.249298 7.705194 3.330639 -24.594509 61.921349 0.902162 0.685115 10.223849 0.605377 -0.849657 -9.874407 -0.785925 0.158409 -19.187197 -13.118892 33.157471 -21.756584 0.582623 0.032350 -15.859522 -21.242924 -13.532132 -81.777481 5.000000 -4.413637 -11.849723 -16.524281 35.487736 17.284016 -0.728913 0.040011 54.441216 45.355553 18.458033 103.704300 -5.000000 4.501826 12.943834 -14.440912 19.304289 -40.558540 15.453129 14.684486 97.806038 2.605165 -13.606878 1.955840 -6.178025 -13.164145 -52.805412 1.317604 -0.073324 52.560909 9.996426 15.646795 -16.754715 -23.001005 -10.574301 
7.326057 44.402863 132.904236 7.639201 2.977986 -24.478203 62.007061 1.141909 1.080635 10.195308 0.556555 -0.830125 -9.865194 -0.919644 0.188513 -19.077528 -13.138909 33.019100 -21.727192 0.576486 0.022776 -15.957474 -21.509001 -13.508687 -82.103249 5.000000 -4.240084 -11.752539 -16.245184 35.238003 17.362127 -0.917127 0.040269 55.286312 44.980598 18.862545 103.402519 -5.000000 4.431622 13.035425 -14.417285 19.247871 -42.707752 16.411217 13.252286 98.595154 2.555771 -12.582820 -1.209345 -5.063789 -12.268480 -52.547203 1.533125 -0.146585 54.231865 9.978586 16.188509 -18.540558 -23.577711 -10.980481 
7.186142 44.355526 133.549530 7.581985 2.624895 -24.353109 62.106049 1.377462 1.485097 10.166780 0.507733 -0.810507 -9.856037 -1.043706 0.217154 -18.977571 -13.158854 32.880730 -21.688129 0.576480 0.022774 -16.055334 -21.774940 -13.483930 -82.427917 5.000000 -4.070027 -11.652488 -15.969216 34.996723 17.440393 -1.102439 0.049850 56.128780 44.595470 19.257971 103.101105 -5.000000 4.365042 13.123044 -14.379283 19.185234 -44.874275 17.318573 11.821222 99.385239 2.487052 -11.564015 -4.421924 -3.993597 -11.312801 -52.271980 1.757433 -0.173482 55.919430 9.985745 16.701115 -20.395988 -24.119354 -11.445029 
7.055032 44.306522 134.192017 7.453948 2.315461 -24.239531 62.204098 1.572548 1.810001 10.167724 0.458914 -0.771452 -9.856262 -1.101640 0.225916 -18.868065 -13.149837 32.768349 -21.649061 0.556968 0.021766 -16.177267 -21.988789 -13.444036 -82.735199 5.000000 -3.889984 -11.595392 -15.902653 34.823223 17.489351 -1.248736 0.057413 56.873466 44.222534 19.594950 102.866562 -5.000000 4.291687 13.226376 -14.427699 19.134266 -46.998787 18.181824 10.554108 99.367340 2.224100 -10.397079 -7.308427 -2.456566 -10.342746 -51.891006 1.865402 -0.425568 57.465549 9.933413 17.066301 -22.039146 -24.468861 -11.888280 
6.934728 44.256596 134.830658 7.262005 2.059112 -24.117996 62.309616 1.745567 2.059347 10.188557 0.400334 -0.703101 -9.865952 -1.082329 0.222996 -18.779503 -13.128266 32.684185 -21.609991 0.537457 0.020759 -16.319208 -22.153269 -13.394201 -83.046272 5.000000 -3.701320 -11.579114 -16.057508 34.727249 17.499226 -1.356016 0.062957 57.547596 43.855885 19.894938 102.687553 -5.000000 4.208352 13.343805 -14.558275 19.118252 -49.003918 19.062588 9.470394 98.520798 1.789626 -9.106768 -9.996100 -0.498961 -9.321223 -51.360298 1.835804 -0.843654 58.894249 9.489129 17.340118 -23.545383 -24.485146 -12.253131 
